<?xml version="1.0" standalone="no"?><!DOCTYPE svg PUBLIC "-//W3C//DTD SVG 1.1//EN" "http://www.w3.org/Graphics/SVG/1.1/DTD/svg11.dtd" ><svg xmlns="http://www.w3.org/2000/svg"><metadata></metadata><defs><font id="Founder:FZHuangCao-S09	Regular" horiz-adv-x="256"><font-face font-family="FZHuangCao-S09" font-weight="400" font-stretch="normal" units-per-em="256" panose-1="3 0 5 9 0 0 0 0 0 0" ascent="221" descent="-91" x-height="0" bbox="9 -29 227 211" underline-thickness="12" underline-position="-79" unicode-range="U+002e-8003" /><missing-glyph horiz-adv-x="256"  /><glyph glyph-name="" unicode="." d="M36 2 q-5 -5 -13 -5 q-11 1 -14 10 q0 0 0 3 q1 13 14 15 q11 -1 15 -12 q0 -2 0 -4 q0 -4 -2 -7 Z" /><glyph glyph-name="" unicode="&#x4e00;" d="M169 111 q10 2 22 -3 q13 -8 5 -17 q-7 -6 -17 -3 q-18 2 -64 -11 q-14 -6 -33 -7 q-24 0 -26 5 q2 5 22 13 q56 16 91 23 Z" /><glyph glyph-name="" unicode="&#x4e0d;" d="M140 175 q16 7 27 -2 q4 -8 -3 -10 q-19 -17 -48 -66 q-4 -11 1 -18 q4 -6 15 -14 q11 -9 10 -41 q3 -24 -7 -24 q-11 0 -10 3 q-6 12 -21 24 q-2 1 -2 2 q0 0 3 1 q7 -2 14 -4 q5 -2 5 4 q1 29 -8 33 q-19 17 -11 36 q17 40 27 52 q1 2 -2 2 q-26 -10 -37 -3 q-6 4 0 8 q1 0 5 2 q7 2 11 4 q7 4 18 7 q4 1 13 4 ZM169 75 q-2 2 -1 3 q0 1 3 2 q18 0 30 -25 q2 -8 -2 -15 q-9 -4 -17 1 q-6 -3 -9 -5 q-5 -3 -1 2 q9 9 4 22 q-4 9 -7 15 ZM59 52 q3 4 6 1 q3 -4 5 -8 q3 -7 16 3 q3 3 1 -1 q-4 -5 -2 -8 q4 -7 -2 -12 q-6 -6 -13 -3 q-21 12 -11 28 Z" /><glyph glyph-name="" unicode="&#x4e43;" d="M176 177 q8 2 13 -3 q4 -5 0 -11 q-6 -8 -9 -18 q-5 -13 -12 -25 q-9 -16 -15 -33 q-2 -5 3 -5 q43 1 39 -33 q-4 -9 -9 -13 q-3 -3 -12 -15 q-20 -21 -52 -21 q-5 0 -6 0 q0 2 5 4 q46 14 60 46 q1 15 -14 17 q-40 -1 -20 42 q5 12 18 46 q1 1 -2 0 q-45 -34 -81 -29 q-15 7 -3 18 q41 24 85 31 q3 0 6 1 q3 0 6 1 ZM103 121 q2 5 11 -1 q6 -9 3 -17 q-10 -14 -14 -29 q-19 -46 -43 -74 q-2 0 -4 0 q-1 0 1 1 q5 5 10 19 q8 24 18 47 q15 38 18 54 Z" /><glyph glyph-name="" unicode="&#x4eba;" d="M142 169 q19 -11 10 -18 q-13 -17 -35 -50 q-33 -51 -79 -76 q-3 -2 -4 -1 q0 1 3 4 q64 65 94 134 q5 11 11 7 ZM127 86 q31 -6 56 -20 q19 -12 34 -31 q2 -7 -4 -9 q-7 -3 -11 1 q-18 23 -35 28 q-18 8 -41 27 q-4 2 -3 3 q0 1 4 1 Z" /><glyph glyph-name="" unicode="&#x5207;" d="M93 147 q0 -1 0 -2 q1 -4 3 -3 q9 -3 9 -14 q2 -14 -12 -23 q-4 -4 -5 -8 q-1 -5 -2 -11 q-1 -10 -1 -17 q-1 -4 2 0 q5 6 12 14 q5 6 9 11 q3 4 5 4 q1 -1 -2 -5 q-2 -3 -1 -2 q-10 -14 -14 -34 q-4 -13 -10 -24 q-6 -8 -9 -12 q-5 -8 -11 -2 q-5 7 -6 12 q-2 5 2 8 q4 3 4 8 q-1 26 1 37 q0 4 -4 3 q-22 -8 -32 7 q-3 7 6 12 q18 10 28 17 q4 1 4 5 q0 2 1 4 q0 4 0 12 q1 9 1 15 q2 24 13 14 q9 -13 9 -26 ZM188 155 q21 -10 18 -22 q-6 -21 -9 -43 q-1 -7 -1 -10 q-8 -48 -18 -59 q-10 -10 -24 -5 q-15 11 -21 26 q-5 -6 -17 -18 q-4 -4 -7 -7 q-5 -4 -6 -2 q0 2 5 7 q22 27 39 100 q1 10 8 9 q9 -5 6 -12 q-1 -1 -2 -2 q-5 -7 -6 -18 q-7 -29 -17 -51 q0 -1 -1 -2 q0 -1 2 -1 q6 -6 18 -13 q3 -1 4 -1 q5 -2 8 3 q17 21 13 100 q0 2 -1 3 q-1 0 -4 0 q-11 -4 -31 -2 q-5 0 -5 3 q0 2 5 6 q29 17 44 11 Z" /><glyph glyph-name="" unicode="&#x53ef;" d="M185 179 q23 2 39 -8 q8 -12 -6 -15 q-21 6 -49 0 q-27 -6 -90 -29 q-47 -16 -55 -2 q-7 9 1 10 q17 4 40 13 q71 26 120 31 ZM141 137 q-2 4 2 5 q31 3 29 -31 q14 -14 13 -39 q-8 -66 -59 -85 q-4 0 -5 1 q0 2 3 4 q63 56 41 101 q-11 -31 -31 -38 q-35 -1 -36 25 q1 30 58 34 q-1 13 -10 20 q-1 0 -2 0 q-3 1 -3 3 ZM109 81 q9 -12 27 -7 q10 8 17 24 q-13 5 -29 -1 q-18 -8 -15 -16 Z" /><glyph glyph-name="" unicode="&#x540c;" d="M158 178 q11 3 22 -10 q7 -12 8 -28 q-1 -4 -1 -11 q1 -7 2 -14 q0 1 0 -36 q-2 -15 -1 -41 q1 -6 1 -7 q1 -3 1 -18 q0 -2 0 -4 q-1 -9 -7 -9 q-11 2 -15 7 q-2 6 -10 10 q-4 2 1 2 q5 -2 10 -1 q6 -1 7 10 q0 25 -1 34 q0 12 0 23 q1 48 -10 80 q-3 6 -13 4 q-7 -3 -16 -3 q-10 -2 -13 -4 q-13 -7 -40 -10 q-3 0 0 2 q23 17 75 24 ZM67 142 q0 6 1 6 q1 0 2 -6 q0 -16 2 -36 q1 -18 -2 -50 q-4 -21 2 -22 q2 -2 1 -7 q-3 -6 -11 -1 q-7 5 -8 31 q0 25 7 53 q4 19 6 32 ZM150 131 q6 3 10 -4 q2 -5 -5 -5 q-6 0 -14 -3 q-8 -3 -16 -7 q-16 -11 -19 -29 q11 9 28 15 q18 4 19 -9 q-1 -8 -11 -17 q-1 -1 -3 -2 q-1 -1 -2 -3 q6 0 11 0 q7 -2 8 -7 q0 -5 -7 -8 q-3 -2 -8 -4 q-8 -3 -12 -5 q-4 -2 -4 -1 q-1 0 3 4 q4 4 8 10 q1 3 -1 2 q-4 -1 -10 -3 q-4 -1 -5 3 q-1 3 -2 5 q-3 3 2 5 q7 5 15 20 q0 1 0 2 q0 1 -1 1 q-33 -14 -32 -34 q1 -6 -3 -6 q-6 -2 -7 5 q-2 5 0 13 q2 10 26 43 q-1 -1 -3 -1 q-3 0 -4 0 q-6 -2 -10 -2 q-4 0 -6 1 q-3 0 -4 1 q0 1 3 2 q29 12 40 15 q0 1 3 2 q1 -1 6 0 q5 1 7 1 Z" /><glyph glyph-name="" unicode="&#x5927;" d="M111 177 q-1 3 0 3 q0 1 3 -1 q8 -5 13 -4 q16 -6 13 -29 q-3 -10 -3 -15 q3 1 10 4 q8 2 11 4 q17 1 25 -6 q-4 -18 -23 -23 q-6 -2 -18 -5 q-4 -2 -7 -2 q-3 0 -2 -3 q-2 -20 -10 -46 q-12 -36 -40 -39 q-28 -5 -29 10 q-2 5 0 7 q2 3 6 1 q10 -6 19 0 q16 9 24 28 q6 15 9 33 q-5 -2 -13 -5 q-17 -6 -32 6 q-4 3 -8 5 q-3 1 -2 2 q0 1 4 3 q34 12 51 18 q3 1 3 4 q0 2 0 6 q1 4 1 6 q3 16 1 26 q-3 4 -6 12 ZM166 62 q11 -8 21 -17 q12 -16 3 -31 q-8 -1 -14 7 q-6 7 -14 14 q-8 5 -14 14 q-5 8 -16 17 q-3 0 -2 1 q0 1 4 2 q16 1 32 -7 Z" /><glyph glyph-name="" unicode="&#x5c1a;" d="M129 182 q1 -3 5 -6 q2 -2 4 -3 q7 -8 4 -14 q-2 -5 -3 -8 q-1 -4 -1 -11 q-2 -52 -11 -47 q-9 5 -8 23 q0 18 -1 26 q0 10 -1 28 q0 18 12 12 ZM151 148 q6 -2 11 -1 q12 -1 13 -10 q4 -13 -23 -13 q-6 -1 -7 0 q-1 2 3 6 q11 11 3 14 q-4 0 -4 2 q0 1 4 2 ZM113 135 q-12 -9 -20 -17 q-4 -4 -2 -8 q-1 -11 -11 -8 q-8 4 -4 12 q0 3 1 7 q0 1 1 2 q1 6 7 6 q5 -3 26 8 q9 4 2 -2 ZM190 89 q9 -10 8 -26 q-1 -20 -9 -37 q-6 -17 -21 -26 q-11 -3 -23 3 q-29 18 -28 42 q-3 12 20 21 q8 2 13 -2 q4 -5 -2 -21 q-5 -10 -19 -10 q-4 0 -2 -3 q7 -11 20 -19 q8 -4 18 3 q18 12 20 50 q0 12 -6 20 q-3 3 -12 2 q-41 -4 -82 -30 q-6 -3 -5 -9 q0 -10 1 -17 q2 -6 5 -13 q3 -9 1 -12 q-2 -4 -6 0 q-19 20 -4 57 q2 5 3 6 q2 1 2 -4 q-2 -4 2 -2 q37 28 86 33 q14 2 20 -6 ZM141 56 q0 3 -6 2 q-15 -5 -11 -20 q0 -2 3 0 q17 11 14 18 Z" /><glyph glyph-name="" unicode="&#x5f3a;" d="M163 188 q6 9 16 1 q12 -12 -10 -28 q-19 -14 -23 -20 q-1 -3 1 -3 q4 1 15 5 q11 4 18 6 q0 0 1 0 q4 1 5 3 q4 4 13 -1 q8 -5 8 -8 q1 -3 -7 -6 q-18 -8 -35 -27 q4 -3 6 -6 q0 -2 2 0 q12 4 24 1 q6 -2 7 -7 q-5 -20 -33 -31 q-4 -1 -5 -6 q0 -1 0 -1 q-4 -17 -3 -25 q0 -2 3 -1 q10 3 26 2 q16 -6 10 -18 q-5 -13 -20 -23 q-10 -7 -6 -2 q11 14 14 31 q0 2 -1 3 q-1 0 -3 0 q-13 -2 -27 -10 q-5 -4 -7 1 q-5 6 -1 11 q2 3 2 9 q0 8 1 17 q0 2 1 4 q0 2 -1 2 q-1 0 -1 1 q-6 3 -6 3 q-1 1 4 3 q7 1 7 5 q0 2 0 7 q1 4 2 8 q-1 2 -2 1 q-8 -4 -22 -19 q-6 -5 -9 -2 q-2 5 3 11 q2 2 5 6 q2 4 5 7 q0 1 2 3 q13 19 26 35 q2 4 -2 2 q-39 -18 -37 -6 q-7 9 -1 16 q15 14 35 46 ZM97 178 q19 -1 13 -16 q-1 -2 -3 -4 q-3 -4 -4 -9 q-5 -11 -12 -23 q-4 -6 -8 -12 q-3 -4 -4 -6 q0 -2 1 -2 q13 -2 19 -7 q5 -5 -3 -17 q-8 -11 -14 -22 q-2 -2 2 -2 q23 -2 19 -17 q-10 -31 -40 -49 q-4 -3 -5 -2 q0 2 4 6 q15 19 24 49 q0 1 0 2 q-1 1 -3 1 q-7 0 -10 -3 q-5 -7 -9 5 q-2 7 3 11 q9 11 16 32 q1 4 -2 4 q-3 0 -6 -2 q-8 -6 -13 2 q-5 5 -1 11 q1 2 3 6 q11 24 14 33 q2 7 -5 8 q-14 1 -17 4 q-4 3 4 7 q23 12 37 12 ZM161 103 q-1 1 -2 0 q-2 -1 -8 -9 q-2 -1 1 -1 q4 3 9 5 q1 1 0 5 ZM191 98 q0 2 -1 3 q0 0 -1 0 q-16 -4 -16 -7 q-2 -12 -3 -18 q-2 -3 2 -1 q11 6 19 23 Z" /><glyph glyph-name="" unicode="&#x601d;" d="M159 171 q14 -1 18 -14 q5 -59 -18 -81 q-13 -12 -33 -6 q-2 -5 -12 -14 q-10 -10 -15 -15 q-3 -3 0 -2 q16 8 25 -4 q3 -5 19 6 q16 13 37 11 q25 -10 15 -30 q-6 -5 -15 -2 q-6 6 -6 13 q0 8 -5 10 q-19 2 -20 -7 q0 -3 -3 -7 q0 -1 0 -1 q-3 -3 -17 -10 q-10 -2 -21 18 q-5 2 -11 -3 q-16 -15 -17 -23 q-3 -3 -7 0 q-5 8 -2 13 q4 2 8 8 q0 0 10 11 q14 14 16 16 q9 8 11 13 q-2 0 -4 1 q-8 2 -12 7 q-4 -9 -12 -8 q-9 7 -9 16 q-2 8 -2 20 q0 12 2 25 q0 5 2 1 q0 -1 0 -3 q3 -15 5 -18 q3 -7 3 -13 q1 -9 5 -13 q1 19 27 34 q0 3 0 13 q1 4 1 5 q4 5 10 -2 q2 -2 1 -5 q0 -1 -1 -3 q0 -2 0 -3 q1 -2 3 -1 q3 0 10 0 q-1 0 2 0 q6 -8 -1 -9 q-14 -2 -14 -4 q-2 -17 -3 -32 q10 -1 16 7 q25 25 16 70 q-2 4 -6 5 q-16 -4 -25 -8 q-13 -11 -32 -8 q-3 0 -3 1 q0 1 3 2 q11 4 19 9 q23 11 42 14 ZM119 106 q0 2 -2 1 q-9 -6 -15 -15 q-2 -8 14 -12 q3 -5 3 26 Z" /><glyph glyph-name="" unicode="&#x6700;" d="M145 183 q11 0 17 -9 q7 -12 2 -27 q-8 -21 -27 -31 q-12 -8 -24 -2 q-4 1 -8 -1 q-15 -9 -9 -2 q12 9 9 13 q-3 -7 -9 -2 q-18 16 -6 42 q0 3 3 3 q2 0 3 -3 q1 -9 2 -17 q2 -7 2 -8 q1 -6 4 -9 q1 -1 2 -1 q5 9 22 19 q9 4 15 0 q3 -4 -6 -11 q-10 -6 -16 -12 q18 -3 28 13 q5 14 3 30 q0 4 -6 6 q-10 1 -23 -5 q-7 -3 -14 -1 q-4 0 -4 1 q0 2 4 5 q16 9 36 9 ZM131 141 q1 1 -2 2 q-14 -6 -15 -16 q0 -2 1 -1 q6 4 16 15 ZM182 121 q9 0 9 -6 q-2 -4 -10 -4 q-8 1 -34 -6 q-13 -4 -23 -7 q-14 -4 -21 -6 q-5 -1 -6 -3 q-15 -21 -10 -49 q0 1 1 2 q5 7 5 11 q1 2 -2 2 q-2 0 -2 1 q0 1 2 2 q15 8 17 2 q2 -4 -5 -10 q-3 -3 -9 -8 q-3 -3 -6 -5 q-3 2 0 -20 q-1 -2 1 -1 q9 6 19 18 q1 2 1 5 q1 23 0 33 q0 10 -2 14 q-3 3 3 4 q14 -1 14 -34 q19 20 44 30 q9 3 11 -2 q6 -12 -9 -38 q23 -14 36 -25 q2 -2 4 -2 q7 -8 2 -13 q-4 -6 -13 2 q-23 19 -34 27 q-1 1 -2 0 q-25 -21 -31 -8 q-2 6 6 17 q4 7 23 5 q7 15 7 25 q0 1 -1 1 q-1 0 -2 0 q-24 -5 -38 -26 q-4 -5 -3 -9 q-1 -7 -2 -16 q0 -8 0 -13 q0 -8 -8 -12 q-6 -5 -8 1 q-1 0 -1 0 q-2 11 1 15 q0 1 1 4 q0 1 1 4 q-10 -12 -19 -18 q-14 -7 -19 -3 q-2 1 -2 2 q0 1 2 2 q0 0 2 0 q3 1 6 3 q3 2 2 4 q-11 15 -5 40 q3 19 16 34 q1 1 -1 2 q-4 -2 -14 -6 q-9 -4 -18 -7 q-13 -8 -21 -1 q-3 1 -3 3 q0 1 3 2 q7 1 14 5 q17 7 41 15 q17 5 35 10 q27 8 55 11 ZM146 42 q-4 0 -4 -7 q0 -2 2 -1 q5 2 9 6 q1 0 0 1 q-3 0 -7 1 Z" /><glyph glyph-name="" unicode="&#x6709;" d="M126 186 q17 -1 17 -26 q-1 -4 2 -2 q26 1 38 -1 q6 -2 6 -6 q-1 -3 -8 -4 q-9 -1 -18 -8 q-19 -14 -31 -45 q7 8 18 13 q15 5 15 -13 q-1 -24 1 -33 q2 -41 -7 -58 q-7 -6 -15 -1 q-2 1 -7 6 q-4 4 -6 7 q-4 3 -4 4 q0 0 6 -1 q6 -3 14 -4 q4 -1 5 5 q7 26 1 82 q-1 1 -1 2 q-1 0 -2 -1 q-6 -2 -14 -7 q-4 -2 -7 -7 q-17 -53 -11 -74 q2 -8 0 -10 q-3 -3 -6 3 q-6 11 0 33 q1 4 2 8 q0 4 2 9 q5 28 12 42 q1 2 4 9 q3 6 5 9 q4 9 26 31 q1 1 1 2 q0 1 -1 1 q-21 0 -23 -5 q-28 -54 -63 -58 q-16 -1 -21 11 q-6 14 5 25 q23 22 57 29 q3 -1 3 2 q4 19 1 24 q-2 4 -1 5 q1 2 5 2 ZM117 142 q-1 1 -2 1 q-28 -7 -45 -18 q-12 -9 -12 -17 q-4 -9 14 -9 q6 -2 13 3 q21 13 32 40 ZM133 78 q8 4 14 -1 q6 -3 -9 -15 q-3 -4 0 -5 q4 -2 9 -7 q3 -3 -3 -5 q-7 -2 -9 -3 q-3 -1 -3 -1 q0 1 2 4 q1 4 -1 8 q-6 6 -2 12 q4 4 4 8 q0 3 -3 3 q-4 -1 1 2 Z" /><glyph glyph-name="" unicode="&#x672a;" d="M134 191 q17 -8 10 -20 q-1 -4 1 -4 q17 4 20 -5 q-4 -17 -22 -22 q-4 -4 -4 -7 q-2 -5 -3 -15 q0 -3 2 -2 q17 7 29 15 q7 1 18 -4 q3 -7 -8 -11 q-17 -3 -40 -21 q-4 -9 -3 -35 q0 -25 4 -60 q-2 -5 -10 -4 q-9 16 -20 28 q-7 8 -2 9 q2 -2 7 -5 q6 -5 8 -5 q2 -2 2 -2 q1 0 1 3 q-1 20 1 57 q0 5 1 8 q-3 -1 -17 -9 q-28 -13 -43 -2 q-6 5 0 8 q11 1 61 26 q0 3 0 11 q1 8 1 11 q0 3 -4 3 q-14 -1 -21 5 q-2 4 26 20 q0 13 0 20 q-2 7 5 9 ZM169 75 q14 -1 25 -12 q3 -4 4 -17 q0 -5 -12 -5 q-3 -1 -6 -1 q-7 -1 -16 -2 q-4 -2 -1 1 q25 26 4 32 q-4 1 -4 2 q1 1 6 2 ZM119 63 q3 1 1 -2 q-23 -15 -21 -32 q-1 -8 -8 -12 q-12 -6 -18 2 q-2 4 -4 6 q-4 5 4 10 q-1 -6 46 28 Z" /><glyph glyph-name="" unicode="&#x6765;" d="M129 209 q17 -10 13 -19 q-2 -3 -1 -4 q0 -1 4 0 q17 2 22 -2 q-1 -10 -7 -16 q-20 -4 -23 -7 q-2 -6 -2 -15 q17 13 34 9 q9 -4 5 -13 q-3 -9 -12 -15 q-3 -3 -3 -3 q0 -1 3 0 q7 1 19 -1 q4 -1 4 -3 q0 -2 -3 -4 q-10 -10 -52 -27 q-1 -11 -1 -31 q42 3 73 -22 q7 -11 2 -22 q-3 -4 -13 0 q-9 9 -11 15 q-5 16 -50 22 q-2 -23 -1 -36 q2 -27 -8 -44 q-6 -1 -12 8 q-1 5 -7 10 q-4 4 -3 5 q0 1 6 -1 q7 -1 8 6 q1 8 2 21 q1 10 1 34 q-6 0 -8 2 q3 1 8 2 q0 3 0 7 q0 2 -1 3 q-1 1 -2 -1 q-24 -34 -65 -62 q-5 -3 -6 -2 q0 1 4 5 q27 25 54 65 q2 3 1 4 q-1 1 -5 0 q-15 -6 -35 -2 q-3 0 -3 3 q0 2 3 3 q4 0 11 4 q18 10 41 18 q6 1 6 7 q-2 4 -1 12 q-10 -7 -11 -11 q-5 -13 -23 -6 q-9 3 -5 26 q2 8 7 8 q3 -2 5 -8 q1 -8 8 -4 q12 5 19 10 q0 2 0 14 q0 3 0 6 q-17 -7 -30 -9 q-11 1 -10 9 q15 13 42 21 q1 14 0 25 q-1 6 1 7 q1 2 8 -1 ZM150 152 q-7 -2 -15 -9 q-3 -4 -3 -21 q15 15 22 24 q1 5 -4 6 ZM156 122 q-5 0 -4 -3 q4 -2 4 3 ZM137 120 q-8 -2 -7 -9 q6 4 7 9 Z" /><glyph glyph-name="" unicode="&#x6ca1;" d="M70 196 q25 -10 28 -14 q7 -16 1 -17 q-12 -2 -18 -3 q-5 -3 -6 -1 q-1 2 4 8 q2 3 -13 19 q-2 7 4 8 ZM167 189 q4 6 22 -2 q8 -4 1 -14 q-10 -19 -17 -44 q14 1 18 -8 q-1 -8 -13 -12 q-22 -4 -32 -26 q-1 -4 0 -5 q1 -1 4 2 q13 6 23 2 q15 -5 4 -22 q-6 -11 -12 -24 q32 -12 49 -36 q5 -10 -3 -17 q-8 1 -17 11 q-15 12 -32 26 q-6 5 -8 -2 q-12 -21 -29 -22 q-9 1 -9 4 q-1 4 -4 12 q-4 7 10 21 q10 7 30 5 q5 9 9 27 q0 3 0 3 q0 0 -4 -1 q-7 -3 -12 -6 q-2 -2 -3 -2 q-6 -4 -8 1 q-4 14 -2 17 q9 12 30 35 q-19 11 -3 49 q2 8 -4 8 q-6 1 -9 4 q-3 5 3 7 q12 4 18 9 ZM127 157 q0 4 1 5 q2 1 6 -2 q14 -12 6 -44 q-7 -10 -13 -2 q-7 11 -3 28 q1 2 2 9 q0 4 1 6 ZM59 130 q0 5 1 6 q1 1 3 -4 q4 -11 17 -17 q5 -3 7 -10 q-4 -10 -15 -13 q-8 -2 -8 -21 q-1 -4 0 -18 q1 -14 1 -17 q0 -5 2 -5 q1 0 4 5 q9 18 21 42 q3 6 4 5 q1 0 0 -6 q-11 -43 -14 -58 q-3 -16 -1 -17 q4 -9 -9 -10 q-12 8 -14 28 q-2 6 -2 20 q1 14 3 29 q0 3 2 9 q1 9 3 13 q3 8 -1 20 q-2 5 -4 14 q0 3 0 5 ZM141 28 q-16 0 -22 -13 q7 -5 10 -5 q3 0 14 13 q1 3 1 3 q0 1 -3 2 Z" /><glyph glyph-name="" unicode="&#x751f;" d="M126 177 q0 5 3 7 q2 1 7 -3 q9 -9 7 -24 q-1 -5 -2 -13 q-1 -10 -1 -14 q15 7 25 15 q12 6 17 -2 q1 -8 -8 -12 q-14 -8 -31 -16 q-5 -2 -4 -5 q-1 -7 -1 -15 q-1 -9 -1 -15 q-2 -3 2 -3 q7 -3 9 -11 q0 -11 -8 -24 q-5 -7 -4 -11 q7 2 11 2 q4 0 15 0 q3 0 6 -8 q3 -11 -9 -10 q-9 1 -21 -3 q-11 -5 -24 -7 q-6 -3 -10 -3 q-7 -2 -9 4 q-4 5 4 11 q7 7 13 15 q1 1 0 4 q-7 7 -11 13 q-5 8 -2 12 q9 7 20 12 q3 0 3 5 q-1 3 0 13 q1 9 1 12 q0 1 -3 1 q-4 -2 -8 -4 q-15 -8 -24 -11 q-11 -4 -11 -8 q-3 -8 -11 -3 q-7 7 -4 17 q0 3 2 9 q2 5 3 9 q3 8 7 7 q4 -2 6 -12 q1 -8 6 -4 q9 3 27 11 q6 3 8 4 q3 2 3 6 q0 16 1 28 q0 12 1 24 ZM122 56 q-1 1 -2 1 q-7 -2 -11 -6 q-2 -2 0 -4 q1 -3 8 -9 q0 -1 0 -1 q1 1 2 1 q3 2 3 18 Z" /><glyph glyph-name="" unicode="&#x7684;" d="M104 171 q-1 1 0 1 q1 0 3 0 q13 -15 6 -25 q-11 -14 -27 -26 q-11 -7 -18 -14 q-2 -1 0 -2 q4 -4 8 -19 q13 26 32 31 q16 1 22 -13 q4 5 18 20 q6 6 11 12 q10 10 18 8 q7 -3 0 -12 q-13 -14 -17 -23 q-1 -2 -1 -3 q1 -1 3 0 q30 3 34 -17 q0 -11 -8 -29 q-7 -17 -20 -25 q-26 -17 -32 -2 q-2 4 -4 6 q1 0 6 0 q9 -3 18 3 q13 8 19 23 q8 18 7 28 q-1 8 -17 5 q-12 -3 -12 1 q-2 3 -3 5 q-3 1 0 10 q0 1 1 4 q1 4 2 6 q-12 -17 -21 -27 q0 -15 0 -29 q-6 -24 -25 -30 q-19 -4 -19 11 q1 13 18 31 q3 4 11 11 q2 2 4 4 q-2 13 -5 14 q-3 -1 -11 -6 q6 5 -2 -1 q-13 -11 -16 -18 q-2 -5 -6 -11 q-2 -5 1 -15 q5 -16 -3 -19 q-12 3 -15 21 q-1 2 -2 7 q-1 10 -1 12 q-4 14 6 25 q-1 4 13 31 q2 3 3 5 q1 2 6 10 q8 13 13 18 q0 1 1 1 q0 1 1 2 ZM145 85 q6 -3 12 -8 q4 -7 -5 -11 q-6 0 -10 16 q-1 3 0 3 q0 0 3 0 ZM122 86 q-24 -21 -24 -33 q0 -3 0 -3 q1 -1 3 1 q13 6 17 14 q3 6 4 21 Z" /><glyph glyph-name="" unicode="&#x77e5;" d="M90 183 q10 8 16 -10 q2 -13 -2 -23 q-1 -3 -4 -8 q-4 -10 -6 -15 q7 3 16 6 q13 0 16 -13 q-7 -10 -15 -13 q-13 -8 -38 -39 q3 1 10 4 q6 2 11 5 q12 4 15 8 q0 1 4 0 q0 -2 6 -5 q3 -2 5 -2 q4 -6 -5 -12 q-14 -6 -36 -43 q-16 -23 -25 -23 q-8 -1 -7 1 q0 2 5 10 q2 2 3 4 q7 8 18 26 q0 1 -1 2 q-1 0 -2 -1 q-14 -8 -25 -7 q-12 9 -7 17 q8 11 47 48 q2 2 -2 2 q-13 -5 -19 4 q-5 11 3 25 q10 21 12 31 q1 7 4 11 q1 2 3 10 ZM195 111 q10 0 9 -8 q-4 -12 -16 -33 q2 -3 17 -2 q10 -12 -11 -17 q-4 -2 -13 -9 q-7 -5 -12 -8 q-6 -5 -8 -6 q-8 -3 -5 1 q17 14 21 20 q-15 1 -12 17 q13 18 15 26 q-10 0 -27 -13 q0 -6 2 -9 q3 -12 0 -21 q-1 -5 -5 -5 q-3 0 -6 5 q-14 15 -6 44 q0 2 1 3 q1 0 2 -1 q5 -6 9 -11 q19 24 45 27 ZM119 19 q2 -5 -5 -9 q-8 -3 -12 7 q-1 4 -4 8 q-3 3 -1 15 q-1 3 2 1 q4 -4 9 -5 q6 -5 11 -17 Z" /><glyph glyph-name="" unicode="&#x8003;" d="M137 203 q4 -7 3 -28 q0 0 5 -2 q3 1 6 2 q3 1 5 2 q6 -5 7 -10 q-7 -14 -27 -23 q-6 -18 -7 -26 q-1 -3 -1 -4 q1 -1 3 0 q9 3 17 9 q8 6 14 7 q7 -3 5 -10 q-4 -8 -22 -19 q-55 -76 -101 -103 q-6 -2 -7 -1 q-1 1 4 3 q54 53 86 96 q-16 -2 -15 9 q0 19 3 33 q-4 -1 -10 -1 q-6 0 -13 2 q-4 0 -4 2 q0 2 3 4 q10 8 27 16 q0 7 0 19 q2 13 3 18 q4 14 16 5 ZM148 82 q4 1 15 3 q4 1 6 2 q4 0 4 -5 q-5 -17 -24 -13 q-5 -5 -9 -18 q17 1 27 -9 q16 -28 -14 -57 q-9 -5 -17 -3 q-13 4 -24 18 q-4 2 1 1 q12 -1 19 -2 q11 1 20 13 q9 16 4 25 q-7 5 -20 3 q-12 0 -9 11 q8 23 12 32 q3 6 9 -1 Z" /></font>
</defs>
</svg>
